HIERARCHY
ROOT SimulationBone
{
	OFFSET 0.000000 0.000000 0.000000
	CHANNELS 6 Xposition Yposition Zposition Zrotation Yrotation Xrotation 
	JOINT Hips
	{
		OFFSET 0.000000 0.000000 0.000000
		CHANNELS 6 Xposition Yposition Zposition Zrotation Yrotation Xrotation 
		JOINT RightUpLeg
		{
			OFFSET 0.103454 1.857828 10.548502
			CHANNELS 3 Zrotation Yrotation Xrotation
			JOINT RightLeg
			{
				OFFSET 43.500000 -0.000023 -0.000008
				CHANNELS 3 Zrotation Yrotation Xrotation
				JOINT RightFoot
				{
					OFFSET 42.372192 0.000008 0.000008
					CHANNELS 3 Zrotation Yrotation Xrotation
					JOINT RightToe
					{
						OFFSET 17.299997 -0.000001 0.000000
						CHANNELS 3 Zrotation Yrotation Xrotation
						End Site
						{
							OFFSET 0.000000 0.000000 0.000000
						}
					}
				}
			}
		}
		JOINT LeftUpLeg
		{
			OFFSET 0.103459 1.857828 -10.548505
			CHANNELS 3 Zrotation Yrotation Xrotation
			JOINT LeftLeg
			{
				OFFSET 43.500046 -0.000027 0.000015
				CHANNELS 3 Zrotation Yrotation Xrotation
				JOINT LeftFoot
				{
					OFFSET 42.372261 -0.000008 0.000019
					CHANNELS 3 Zrotation Yrotation Xrotation
					JOINT LeftToe
					{
						OFFSET 17.299992 -0.000006 -0.000002
						CHANNELS 3 Zrotation Yrotation Xrotation
						End Site
						{
							OFFSET 0.000000 0.000000 0.000000
						}
					}
				}
			}
		}
		JOINT Spine
		{
			OFFSET 6.901967 -2.603729 0.000006
			CHANNELS 3 Zrotation Yrotation Xrotation
			JOINT Spine1
			{
				OFFSET 12.588098 -0.000001 -0.000005
				CHANNELS 3 Zrotation Yrotation Xrotation
				JOINT Spine2
				{
					OFFSET 12.343207 0.000001 -0.000003
					CHANNELS 3 Zrotation Yrotation Xrotation
					JOINT Neck
					{
						OFFSET 25.832897 -0.000006 -0.000001
						CHANNELS 3 Zrotation Yrotation Xrotation
						JOINT Head
						{
							OFFSET 11.766602 0.000010 0.000005
							CHANNELS 3 Zrotation Yrotation Xrotation
							End Site
							{
								OFFSET 0.000000 0.000000 0.000000
							}
						}
					}
					JOINT RightShoulder
					{
						OFFSET 19.745901 -1.480368 6.000114
						CHANNELS 3 Zrotation Yrotation Xrotation
						JOINT RightArm
						{
							OFFSET 11.284125 -0.000009 -0.000026
							CHANNELS 3 Zrotation Yrotation Xrotation
							JOINT RightForeArm
							{
								OFFSET 33.000046 0.000005 0.000037
								CHANNELS 3 Zrotation Yrotation Xrotation
								JOINT RightHand
								{
									OFFSET 25.200003 0.000016 -0.000001
									CHANNELS 3 Zrotation Yrotation Xrotation
									End Site
									{
										OFFSET 0.000000 0.000000 0.000000
									}
								}
							}
						}
					}
					JOINT LeftShoulder
					{
						OFFSET 19.746088 -1.480377 -6.000074
						CHANNELS 3 Zrotation Yrotation Xrotation
						JOINT LeftArm
						{
							OFFSET 11.284132 -0.000015 -0.000021
							CHANNELS 3 Zrotation Yrotation Xrotation
							JOINT LeftForeArm
							{
								OFFSET 33.000107 0.000015 0.000018
								CHANNELS 3 Zrotation Yrotation Xrotation
								JOINT LeftHand
								{
									OFFSET 25.199774 0.000138 0.000420
									CHANNELS 3 Zrotation Yrotation Xrotation
									End Site
									{
										OFFSET 0.000000 0.000000 0.000000
									}
								}
							}
						}
					}
				}
			}
		}
	}
}
MOTION
Frames: 10
Frame Time: 0.016667
-40.149319 0.000000 -69.934213 0.000000 61.378938 0.000000 -5.483647 89.924466 -1.617112 84.365428 -2.542344 178.795389 161.201966 -3.895627 166.428561 -25.997612 2.976383 -5.947526 86.192306 2.270713 -9.440212 21.454559 0.003105 0.000017 144.297294 22.933964 -163.989281 -59.867188 0.007281 4.176563 72.687159 -0.565968 7.601133 21.454555 -0.003087 -0.000001 8.204395 -0.062185 -0.082486 6.396022 -0.119673 -0.168262 6.077930 -0.120833 -0.167548 21.379530 -3.684991 -0.358762 -9.427724 5.491423 -2.079499 168.716189 -78.136703 10.035993 11.746906 61.015367 27.893888 -43.190081 -12.820330 1.429729 4.403293 -4.711542 10.366483 -168.482384 83.666839 13.219953 -5.125665 -63.975133 -32.804601 -41.049377 23.201790 -2.023417 7.751658 3.458794 -2.613133 
-39.549518 0.000000 -69.656104 0.000000 62.479157 0.000000 -5.473006 89.934563 -1.546229 84.362909 -2.303712 178.717920 161.100052 -4.520299 167.017851 -25.757200 3.013869 -5.581350 85.850477 1.910060 -9.865211 21.454558 0.003105 0.000018 145.309296 22.189302 -164.923196 -55.792047 -0.748892 4.012498 73.024912 -0.203356 8.397952 21.454553 -0.003086 -0.000001 8.208765 -0.026591 -0.061533 6.404704 -0.049677 -0.124431 6.086615 -0.050571 -0.124142 21.338119 -3.769697 -0.517428 -9.580101 5.688003 -2.316798 169.080389 -78.186516 9.663508 12.121833 60.995664 27.837470 -43.653329 -12.898078 1.447992 4.378856 -5.007793 10.317647 -168.761022 83.718486 12.938457 -5.442090 -64.625923 -33.365698 -40.613308 23.071491 -2.002576 7.980435 2.986214 -1.873868 
-38.926926 0.000000 -69.378188 0.000000 63.572880 0.000000 -5.438230 89.920181 -1.472754 84.385655 -2.136873 178.641724 161.030041 -5.100332 167.663413 -25.533508 3.001151 -5.250876 85.535697 1.570790 -10.307837 21.454557 0.003112 0.000018 146.514019 21.421188 -166.217490 -51.296620 -1.472695 3.167690 73.056014 0.462864 8.538066 21.454553 -0.003089 0.000000 8.214066 -0.010533 -0.042827 6.415292 -0.018626 -0.086165 6.097201 -0.019280 -0.086060 21.278400 -3.894990 -0.675514 -9.730662 5.942849 -2.572942 169.567912 -78.217127 9.166235 12.490354 60.826391 28.000219 -44.193164 -12.964273 1.467776 4.296563 -5.288232 10.133186 -169.202054 83.746638 12.492993 -5.705300 -65.223879 -33.949130 -40.207566 22.968104 -1.984531 8.215340 2.527896 -1.395607 
-38.281740 0.000000 -69.098926 0.000000 64.662077 0.000000 -5.369854 89.851646 -1.390628 84.443670 -2.096415 178.630632 160.945362 -5.589003 168.354573 -25.420081 2.940641 -4.917723 85.289234 1.233382 -10.747525 21.454558 0.003118 0.000018 147.937757 20.663308 -168.184078 -46.572272 -1.933962 1.921530 73.150635 1.297873 8.353493 21.454555 -0.003091 0.000001 8.219078 -0.023949 -0.036097 6.425327 -0.045822 -0.073461 6.107232 -0.046393 -0.073188 21.233001 -4.048928 -0.842227 -9.872323 6.253806 -2.855533 170.125613 -78.235187 8.597979 12.795130 60.512462 28.290651 -44.753359 -13.004769 1.486681 4.171230 -5.493229 9.866152 -169.638825 83.733198 12.051800 -5.867157 -65.768271 -34.555633 -39.830046 22.866947 -1.967480 8.424183 2.102853 -1.227015 
-37.612683 0.000000 -68.816272 0.000000 65.748029 0.000000 -5.263096 89.710214 -1.298245 84.544322 -2.210732 178.740606 160.805935 -5.960459 169.077105 -25.485314 2.837564 -4.541779 85.139493 0.876971 -11.164944 21.454558 0.003115 0.000018 149.575888 19.963147 -171.147496 -41.862697 -1.956036 0.637456 73.601175 2.175000 8.343994 21.454553 -0.003086 -0.000000 8.222407 -0.071362 -0.047853 6.432031 -0.139916 -0.099590 6.113933 -0.140648 -0.098747 21.231882 -4.217232 -1.026749 -10.004698 6.614110 -3.170948 170.669182 -78.251157 8.044163 12.999653 60.081877 28.599122 -45.286940 -13.012299 1.502823 4.024309 -5.569395 9.589439 -169.881585 83.671711 11.806417 -5.891611 -66.270545 -35.184947 -39.468886 22.739318 -1.949295 8.588889 1.736775 -1.340062 
-36.919384 0.000000 -68.528981 0.000000 66.831086 0.000000 -5.128048 89.549141 -1.218025 84.679502 -2.357331 178.976020 160.649765 -6.306793 169.841779 -25.607988 2.688674 -4.106297 85.027631 0.490469 -11.543249 21.454558 0.003109 0.000018 151.275507 19.363998 -175.329945 -37.481195 -1.470922 -0.434201 73.990325 2.992880 8.662066 21.454551 -0.003083 -0.000002 8.223059 -0.127374 -0.067852 6.433438 -0.250735 -0.142663 6.115337 -0.251731 -0.141150 21.284775 -4.389541 -1.235510 -10.128739 7.011701 -3.521777 171.087099 -78.274563 7.618005 13.079257 59.596943 28.798498 -45.780216 -12.998593 1.516479 3.883630 -5.499867 9.377769 -169.766221 83.575619 11.922692 -5.816325 -66.757310 -35.808125 -39.100278 22.558382 -1.927475 8.716974 1.453709 -1.549326 
-36.203063 0.000000 -68.236557 0.000000 67.910873 0.000000 -4.978288 89.409713 -1.165020 84.839217 -2.432050 179.336473 160.495815 -6.708550 170.658294 -25.699526 2.492732 -3.601987 84.904386 0.066126 -11.870870 21.454558 0.003110 0.000017 152.920865 18.892237 179.317617 -33.760760 -0.510243 -0.966843 74.072950 3.574657 9.416775 21.454549 -0.003089 -0.000002 8.222134 -0.169394 -0.086866 6.431717 -0.333663 -0.182976 6.113613 -0.334897 -0.180962 21.389645 -4.557262 -1.472485 -10.242659 7.429777 -3.906767 171.292888 -78.309384 7.407424 13.024355 59.119214 28.780160 -46.229319 -12.981867 1.528804 3.773692 -5.289742 9.292414 -169.178170 83.459853 12.516631 -5.696671 -67.245995 -36.398649 -38.700678 22.301512 -1.900026 8.819653 1.280637 -1.630848 
-35.465951 0.000000 -67.938296 0.000000 68.986905 0.000000 -4.833307 89.213333 -1.103563 85.037855 -2.553311 179.849790 160.219654 -7.076603 171.506897 -25.990605 2.273177 -3.023456 84.846487 -0.396602 -12.158313 21.454558 0.003113 0.000017 154.675630 18.537291 173.851810 -31.034043 0.665696 -0.217742 75.000981 3.390558 10.950889 21.454550 -0.003093 -0.000000 8.228838 -0.215972 -0.116506 6.445331 -0.425103 -0.244804 6.127226 -0.426700 -0.242238 21.517676 -4.715274 -1.734487 -10.332349 7.837961 -4.313059 171.327030 -78.336588 7.371781 12.854022 58.672750 28.508625 -46.636165 -12.987370 1.541401 3.698025 -4.997012 9.339070 -168.124544 83.326959 13.581445 -5.579603 -67.700613 -36.974626 -38.258959 21.961184 -1.866134 8.905652 1.261069 -1.363025 
-34.711286 0.000000 -67.633059 0.000000 70.058776 0.000000 -4.713134 88.895152 -1.002499 85.289045 -2.800180 -179.480468 159.713660 -7.351778 172.370767 -26.680801 2.064525 -2.371857 84.915191 -0.893330 -12.416197 21.454557 0.003114 0.000018 156.639864 18.242216 169.487190 -29.489782 1.735491 2.160065 77.647831 2.036817 13.291619 21.454552 -0.003085 0.000001 8.251769 -0.276798 -0.163680 6.491560 -0.543986 -0.342561 6.173456 -0.546166 -0.339278 21.634770 -4.859457 -2.015083 -10.382120 8.200462 -4.722612 171.281517 -78.329364 7.418275 12.577671 58.285422 27.955831 -46.998772 -13.039571 1.555858 3.649928 -4.700225 9.498692 -166.670456 83.176598 15.051737 -5.528269 -68.070406 -37.544204 -37.770383 21.537399 -1.825815 8.984850 1.442636 -0.574322 
-33.942837 0.000000 -67.319509 0.000000 71.125351 0.000000 -4.624570 88.565178 -0.897129 85.566344 -2.871733 -178.770844 159.064915 -7.778119 173.275397 -27.527186 1.899663 -1.678373 84.983152 -1.410689 -12.627334 21.454558 0.003111 0.000018 158.414285 17.841801 167.108228 -28.882465 2.459815 4.652901 80.571028 0.347118 15.112903 21.454555 -0.003080 0.000001 8.288762 -0.285053 -0.195539 6.565708 -0.558568 -0.406870 6.247609 -0.561143 -0.403497 21.712700 -4.985498 -2.302593 -10.383962 8.472593 -5.109396 171.325923 -78.254134 7.375505 12.141444 58.039039 27.054641 -47.293568 -13.152874 1.572372 3.601128 -4.506385 9.708013 -164.979597 83.012717 16.762232 -5.672694 -68.298638 -38.037615 -37.242944 21.045286 -1.780356 9.069841 1.873853 0.708954 
